<svg width="147" height="24" viewBox="0 0 147 24" fill="none" xmlns="http://www.w3.org/2000/svg">
    <g filter="url(#filter0_d_1_195)">
        <mask id="path-1-outside-1_1_195" maskUnits="userSpaceOnUse" x="1" y="-1" width="143" height="18" fill="black">
            <rect fill="white" x="1" y="-1" width="143" height="18" />
            <path
                d="M8.53409 15H2.9375V0.454545H8.47727C9.97349 0.454545 11.2661 0.745738 12.3551 1.32812C13.4489 1.90578 14.2917 2.73911 14.8835 3.82812C15.4801 4.91241 15.7784 6.21212 15.7784 7.72727C15.7784 9.24242 15.4825 10.5445 14.8906 11.6335C14.2988 12.7178 13.4607 13.5511 12.3764 14.1335C11.2921 14.7112 10.0114 15 8.53409 15ZM6.88636 11.6477H8.39205C9.11174 11.6477 9.72491 11.5317 10.2315 11.2997C10.7429 11.0677 11.1312 10.6676 11.3963 10.0994C11.6662 9.53125 11.8011 8.74053 11.8011 7.72727C11.8011 6.71402 11.6638 5.9233 11.3892 5.35511C11.1193 4.78693 10.7216 4.38684 10.196 4.15483C9.67519 3.92282 9.03599 3.80682 8.27841 3.80682H6.88636V11.6477ZM24.3021 15.1705C23.606 15.1705 22.9905 15.0568 22.4555 14.8295C21.9252 14.5975 21.5085 14.2472 21.2055 13.7784C20.9024 13.3097 20.7509 12.7131 20.7509 11.9886C20.7509 11.392 20.8527 10.883 21.0563 10.4616C21.2599 10.0355 21.544 9.6875 21.9086 9.41761C22.2732 9.14773 22.6969 8.94176 23.1799 8.79972C23.6676 8.65767 24.1932 8.56534 24.7566 8.52273C25.3674 8.47538 25.8575 8.41856 26.2268 8.35227C26.6008 8.28125 26.8707 8.18419 27.0364 8.06108C27.2022 7.93324 27.285 7.76515 27.285 7.55682V7.52841C27.285 7.24432 27.1761 7.02652 26.9583 6.875C26.7405 6.72348 26.4612 6.64773 26.1202 6.64773C25.7462 6.64773 25.4408 6.73059 25.204 6.89631C24.972 7.05729 24.8324 7.30587 24.785 7.64205H21.1771C21.2244 6.97917 21.4351 6.36837 21.8092 5.80966C22.188 5.24621 22.7396 4.7964 23.464 4.46023C24.1884 4.11932 25.0928 3.94886 26.1771 3.94886C26.9583 3.94886 27.6591 4.04119 28.2793 4.22585C28.8996 4.40578 29.4275 4.65909 29.8631 4.9858C30.2987 5.30777 30.6302 5.68655 30.8575 6.12216C31.0895 6.55303 31.2055 7.02178 31.2055 7.52841V15H27.5407V13.4659H27.4555C27.2377 13.8731 26.9725 14.2022 26.66 14.4531C26.3522 14.7041 25.9995 14.8864 25.6018 15C25.2088 15.1136 24.7755 15.1705 24.3021 15.1705ZM25.5805 12.6989C25.8788 12.6989 26.1581 12.6373 26.4185 12.5142C26.6837 12.3911 26.8991 12.2135 27.0648 11.9815C27.2306 11.7495 27.3134 11.4678 27.3134 11.1364V10.2273C27.2093 10.2699 27.098 10.3101 26.9796 10.348C26.866 10.3859 26.7429 10.4214 26.6103 10.4545C26.4825 10.4877 26.3451 10.5185 26.1984 10.5469C26.0563 10.5753 25.9072 10.6013 25.7509 10.625C25.4479 10.6723 25.1993 10.7505 25.0052 10.8594C24.8158 10.9635 24.6737 11.0938 24.579 11.25C24.4891 11.4015 24.4441 11.572 24.4441 11.7614C24.4441 12.0644 24.5506 12.2964 24.7637 12.4574C24.9768 12.6184 25.249 12.6989 25.5805 12.6989ZM36.6787 15V4.09091H40.4855V6.16477H40.5991C40.798 5.39773 41.1129 4.83665 41.5438 4.48153C41.9794 4.12642 42.4884 3.94886 43.0707 3.94886C43.2412 3.94886 43.4093 3.96307 43.575 3.99148C43.7455 4.01515 43.9088 4.05066 44.0651 4.09801V7.44318C43.8709 7.37689 43.6318 7.32718 43.3477 7.29403C43.0636 7.26089 42.8198 7.24432 42.6162 7.24432C42.2327 7.24432 41.887 7.33191 41.5793 7.5071C41.2762 7.67756 41.0371 7.91903 40.8619 8.23153C40.6867 8.5393 40.5991 8.90152 40.5991 9.31818V15H36.6787ZM52.4733 12.4148L52.5017 7.75568H53.0131L55.6551 4.09091H60.0585L55.6267 9.80114H54.5187L52.4733 12.4148ZM48.9506 15V0.454545H52.871V15H48.9506ZM55.6835 15L53.1835 10.6818L55.7403 7.89773L60.1722 15H55.6835ZM69.4575 15.1989C68.2928 15.1989 67.289 14.9763 66.4462 14.5312C65.6081 14.0814 64.9618 13.4375 64.5072 12.5994C64.0574 11.7566 63.8325 10.7481 63.8325 9.57386C63.8325 8.44697 64.0598 7.46212 64.5143 6.61932C64.9689 5.77651 65.6105 5.12074 66.4391 4.65199C67.2677 4.18324 68.2454 3.94886 69.3723 3.94886C70.1962 3.94886 70.9419 4.0767 71.6095 4.33239C72.2771 4.58807 72.8477 4.95975 73.3212 5.44744C73.7947 5.9304 74.1592 6.51752 74.4149 7.20881C74.6706 7.90009 74.7984 8.67898 74.7984 9.54545V10.4545H65.0541V8.29545H71.1905C71.1857 7.98295 71.1053 7.70833 70.949 7.47159C70.7975 7.23011 70.5915 7.04309 70.3311 6.91051C70.0754 6.7732 69.7842 6.70455 69.4575 6.70455C69.1403 6.70455 68.8491 6.7732 68.584 6.91051C68.3188 7.04309 68.1057 7.22775 67.9447 7.46449C67.7885 7.70123 67.7056 7.97822 67.6962 8.29545V10.625C67.6962 10.9754 67.7696 11.2879 67.9163 11.5625C68.0631 11.8371 68.2738 12.0526 68.5484 12.2088C68.8231 12.3651 69.1545 12.4432 69.5428 12.4432C69.8126 12.4432 70.0589 12.4053 70.2814 12.3295C70.5087 12.2538 70.7028 12.1449 70.8638 12.0028C71.0248 11.8561 71.1431 11.6809 71.2189 11.4773H74.7984C74.6753 12.2348 74.3841 12.893 73.9249 13.4517C73.4656 14.0057 72.8572 14.4366 72.0996 14.7443C71.3467 15.0473 70.4661 15.1989 69.4575 15.1989ZM83.9187 8.86364V15H79.9982V4.09091H83.7198V6.16477H83.8335C84.0702 5.47348 84.4869 4.93134 85.0835 4.53835C85.6848 4.14536 86.3855 3.94886 87.1857 3.94886C87.9575 3.94886 88.6275 4.12642 89.1957 4.48153C89.7686 4.83191 90.2113 5.31487 90.5238 5.9304C90.841 6.54593 90.9973 7.24905 90.9925 8.03977V15H87.0721V8.86364C87.0768 8.32386 86.9395 7.90009 86.6602 7.59233C86.3855 7.28456 86.002 7.13068 85.5096 7.13068C85.1876 7.13068 84.9059 7.2017 84.6644 7.34375C84.4277 7.48106 84.2454 7.67992 84.1175 7.94034C83.9897 8.19602 83.9234 8.50379 83.9187 8.86364Z" />
            <path
                d="M96.4711 15V0.454545H100.42V6.13636H105.647V0.454545H109.596V15H105.647V9.31818H100.42V15H96.4711ZM122.202 10.2273V4.09091H126.122V15H122.401V12.9261H122.287C122.05 13.6222 121.636 14.1667 121.044 14.5597C120.452 14.9479 119.749 15.142 118.935 15.142C118.172 15.142 117.505 14.9669 116.932 14.6165C116.364 14.2661 115.921 13.7831 115.604 13.1676C115.291 12.5521 115.133 11.8466 115.128 11.0511V4.09091H119.048V10.2273C119.053 10.767 119.19 11.1908 119.46 11.4986C119.735 11.8063 120.118 11.9602 120.611 11.9602C120.938 11.9602 121.219 11.8916 121.456 11.7543C121.698 11.6122 121.882 11.4134 122.01 11.1577C122.143 10.8973 122.207 10.5871 122.202 10.2273ZM131.659 15V0.454545H135.58V5.99432H135.637C135.779 5.625 135.987 5.28646 136.262 4.97869C136.536 4.66619 136.877 4.41761 137.284 4.23295C137.692 4.04356 138.165 3.94886 138.705 3.94886C139.425 3.94886 140.109 4.14062 140.757 4.52415C141.411 4.90767 141.941 5.51136 142.348 6.33523C142.76 7.15909 142.966 8.22917 142.966 9.54545C142.966 10.8049 142.77 11.849 142.377 12.6776C141.988 13.5062 141.468 14.1241 140.814 14.5312C140.166 14.9384 139.453 15.142 138.676 15.142C138.165 15.142 137.708 15.0592 137.306 14.8935C136.908 14.723 136.567 14.4934 136.283 14.2045C136.004 13.911 135.788 13.5795 135.637 13.2102H135.551V15H131.659ZM135.495 9.54545C135.495 10.0758 135.563 10.535 135.701 10.9233C135.843 11.3068 136.041 11.6051 136.297 11.8182C136.558 12.0265 136.868 12.1307 137.228 12.1307C137.587 12.1307 137.893 12.0289 138.144 11.8253C138.399 11.617 138.594 11.321 138.726 10.9375C138.863 10.5492 138.932 10.0852 138.932 9.54545C138.932 9.00568 138.863 8.54403 138.726 8.16051C138.594 7.77225 138.399 7.47633 138.144 7.27273C137.893 7.06439 137.587 6.96023 137.228 6.96023C136.868 6.96023 136.558 7.06439 136.297 7.27273C136.041 7.47633 135.843 7.77225 135.701 8.16051C135.563 8.54403 135.495 9.00568 135.495 9.54545Z" />
        </mask>
        <path
            d="M8.53409 15H2.9375V0.454545H8.47727C9.97349 0.454545 11.2661 0.745738 12.3551 1.32812C13.4489 1.90578 14.2917 2.73911 14.8835 3.82812C15.4801 4.91241 15.7784 6.21212 15.7784 7.72727C15.7784 9.24242 15.4825 10.5445 14.8906 11.6335C14.2988 12.7178 13.4607 13.5511 12.3764 14.1335C11.2921 14.7112 10.0114 15 8.53409 15ZM6.88636 11.6477H8.39205C9.11174 11.6477 9.72491 11.5317 10.2315 11.2997C10.7429 11.0677 11.1312 10.6676 11.3963 10.0994C11.6662 9.53125 11.8011 8.74053 11.8011 7.72727C11.8011 6.71402 11.6638 5.9233 11.3892 5.35511C11.1193 4.78693 10.7216 4.38684 10.196 4.15483C9.67519 3.92282 9.03599 3.80682 8.27841 3.80682H6.88636V11.6477ZM24.3021 15.1705C23.606 15.1705 22.9905 15.0568 22.4555 14.8295C21.9252 14.5975 21.5085 14.2472 21.2055 13.7784C20.9024 13.3097 20.7509 12.7131 20.7509 11.9886C20.7509 11.392 20.8527 10.883 21.0563 10.4616C21.2599 10.0355 21.544 9.6875 21.9086 9.41761C22.2732 9.14773 22.6969 8.94176 23.1799 8.79972C23.6676 8.65767 24.1932 8.56534 24.7566 8.52273C25.3674 8.47538 25.8575 8.41856 26.2268 8.35227C26.6008 8.28125 26.8707 8.18419 27.0364 8.06108C27.2022 7.93324 27.285 7.76515 27.285 7.55682V7.52841C27.285 7.24432 27.1761 7.02652 26.9583 6.875C26.7405 6.72348 26.4612 6.64773 26.1202 6.64773C25.7462 6.64773 25.4408 6.73059 25.204 6.89631C24.972 7.05729 24.8324 7.30587 24.785 7.64205H21.1771C21.2244 6.97917 21.4351 6.36837 21.8092 5.80966C22.188 5.24621 22.7396 4.7964 23.464 4.46023C24.1884 4.11932 25.0928 3.94886 26.1771 3.94886C26.9583 3.94886 27.6591 4.04119 28.2793 4.22585C28.8996 4.40578 29.4275 4.65909 29.8631 4.9858C30.2987 5.30777 30.6302 5.68655 30.8575 6.12216C31.0895 6.55303 31.2055 7.02178 31.2055 7.52841V15H27.5407V13.4659H27.4555C27.2377 13.8731 26.9725 14.2022 26.66 14.4531C26.3522 14.7041 25.9995 14.8864 25.6018 15C25.2088 15.1136 24.7755 15.1705 24.3021 15.1705ZM25.5805 12.6989C25.8788 12.6989 26.1581 12.6373 26.4185 12.5142C26.6837 12.3911 26.8991 12.2135 27.0648 11.9815C27.2306 11.7495 27.3134 11.4678 27.3134 11.1364V10.2273C27.2093 10.2699 27.098 10.3101 26.9796 10.348C26.866 10.3859 26.7429 10.4214 26.6103 10.4545C26.4825 10.4877 26.3451 10.5185 26.1984 10.5469C26.0563 10.5753 25.9072 10.6013 25.7509 10.625C25.4479 10.6723 25.1993 10.7505 25.0052 10.8594C24.8158 10.9635 24.6737 11.0938 24.579 11.25C24.4891 11.4015 24.4441 11.572 24.4441 11.7614C24.4441 12.0644 24.5506 12.2964 24.7637 12.4574C24.9768 12.6184 25.249 12.6989 25.5805 12.6989ZM36.6787 15V4.09091H40.4855V6.16477H40.5991C40.798 5.39773 41.1129 4.83665 41.5438 4.48153C41.9794 4.12642 42.4884 3.94886 43.0707 3.94886C43.2412 3.94886 43.4093 3.96307 43.575 3.99148C43.7455 4.01515 43.9088 4.05066 44.0651 4.09801V7.44318C43.8709 7.37689 43.6318 7.32718 43.3477 7.29403C43.0636 7.26089 42.8198 7.24432 42.6162 7.24432C42.2327 7.24432 41.887 7.33191 41.5793 7.5071C41.2762 7.67756 41.0371 7.91903 40.8619 8.23153C40.6867 8.5393 40.5991 8.90152 40.5991 9.31818V15H36.6787ZM52.4733 12.4148L52.5017 7.75568H53.0131L55.6551 4.09091H60.0585L55.6267 9.80114H54.5187L52.4733 12.4148ZM48.9506 15V0.454545H52.871V15H48.9506ZM55.6835 15L53.1835 10.6818L55.7403 7.89773L60.1722 15H55.6835ZM69.4575 15.1989C68.2928 15.1989 67.289 14.9763 66.4462 14.5312C65.6081 14.0814 64.9618 13.4375 64.5072 12.5994C64.0574 11.7566 63.8325 10.7481 63.8325 9.57386C63.8325 8.44697 64.0598 7.46212 64.5143 6.61932C64.9689 5.77651 65.6105 5.12074 66.4391 4.65199C67.2677 4.18324 68.2454 3.94886 69.3723 3.94886C70.1962 3.94886 70.9419 4.0767 71.6095 4.33239C72.2771 4.58807 72.8477 4.95975 73.3212 5.44744C73.7947 5.9304 74.1592 6.51752 74.4149 7.20881C74.6706 7.90009 74.7984 8.67898 74.7984 9.54545V10.4545H65.0541V8.29545H71.1905C71.1857 7.98295 71.1053 7.70833 70.949 7.47159C70.7975 7.23011 70.5915 7.04309 70.3311 6.91051C70.0754 6.7732 69.7842 6.70455 69.4575 6.70455C69.1403 6.70455 68.8491 6.7732 68.584 6.91051C68.3188 7.04309 68.1057 7.22775 67.9447 7.46449C67.7885 7.70123 67.7056 7.97822 67.6962 8.29545V10.625C67.6962 10.9754 67.7696 11.2879 67.9163 11.5625C68.0631 11.8371 68.2738 12.0526 68.5484 12.2088C68.8231 12.3651 69.1545 12.4432 69.5428 12.4432C69.8126 12.4432 70.0589 12.4053 70.2814 12.3295C70.5087 12.2538 70.7028 12.1449 70.8638 12.0028C71.0248 11.8561 71.1431 11.6809 71.2189 11.4773H74.7984C74.6753 12.2348 74.3841 12.893 73.9249 13.4517C73.4656 14.0057 72.8572 14.4366 72.0996 14.7443C71.3467 15.0473 70.4661 15.1989 69.4575 15.1989ZM83.9187 8.86364V15H79.9982V4.09091H83.7198V6.16477H83.8335C84.0702 5.47348 84.4869 4.93134 85.0835 4.53835C85.6848 4.14536 86.3855 3.94886 87.1857 3.94886C87.9575 3.94886 88.6275 4.12642 89.1957 4.48153C89.7686 4.83191 90.2113 5.31487 90.5238 5.9304C90.841 6.54593 90.9973 7.24905 90.9925 8.03977V15H87.0721V8.86364C87.0768 8.32386 86.9395 7.90009 86.6602 7.59233C86.3855 7.28456 86.002 7.13068 85.5096 7.13068C85.1876 7.13068 84.9059 7.2017 84.6644 7.34375C84.4277 7.48106 84.2454 7.67992 84.1175 7.94034C83.9897 8.19602 83.9234 8.50379 83.9187 8.86364Z"
            fill="white" />
        <path
            d="M96.4711 15V0.454545H100.42V6.13636H105.647V0.454545H109.596V15H105.647V9.31818H100.42V15H96.4711ZM122.202 10.2273V4.09091H126.122V15H122.401V12.9261H122.287C122.05 13.6222 121.636 14.1667 121.044 14.5597C120.452 14.9479 119.749 15.142 118.935 15.142C118.172 15.142 117.505 14.9669 116.932 14.6165C116.364 14.2661 115.921 13.7831 115.604 13.1676C115.291 12.5521 115.133 11.8466 115.128 11.0511V4.09091H119.048V10.2273C119.053 10.767 119.19 11.1908 119.46 11.4986C119.735 11.8063 120.118 11.9602 120.611 11.9602C120.938 11.9602 121.219 11.8916 121.456 11.7543C121.698 11.6122 121.882 11.4134 122.01 11.1577C122.143 10.8973 122.207 10.5871 122.202 10.2273ZM131.659 15V0.454545H135.58V5.99432H135.637C135.779 5.625 135.987 5.28646 136.262 4.97869C136.536 4.66619 136.877 4.41761 137.284 4.23295C137.692 4.04356 138.165 3.94886 138.705 3.94886C139.425 3.94886 140.109 4.14062 140.757 4.52415C141.411 4.90767 141.941 5.51136 142.348 6.33523C142.76 7.15909 142.966 8.22917 142.966 9.54545C142.966 10.8049 142.77 11.849 142.377 12.6776C141.988 13.5062 141.468 14.1241 140.814 14.5312C140.166 14.9384 139.453 15.142 138.676 15.142C138.165 15.142 137.708 15.0592 137.306 14.8935C136.908 14.723 136.567 14.4934 136.283 14.2045C136.004 13.911 135.788 13.5795 135.637 13.2102H135.551V15H131.659ZM135.495 9.54545C135.495 10.0758 135.563 10.535 135.701 10.9233C135.843 11.3068 136.041 11.6051 136.297 11.8182C136.558 12.0265 136.868 12.1307 137.228 12.1307C137.587 12.1307 137.893 12.0289 138.144 11.8253C138.399 11.617 138.594 11.321 138.726 10.9375C138.863 10.5492 138.932 10.0852 138.932 9.54545C138.932 9.00568 138.863 8.54403 138.726 8.16051C138.594 7.77225 138.399 7.47633 138.144 7.27273C137.893 7.06439 137.587 6.96023 137.228 6.96023C136.868 6.96023 136.558 7.06439 136.297 7.27273C136.041 7.47633 135.843 7.77225 135.701 8.16051C135.563 8.54403 135.495 9.00568 135.495 9.54545Z"
            fill="#FFA806" />
        <path
            d="M2.9375 15H1.9375V16H2.9375V15ZM2.9375 0.454545V-0.545455H1.9375V0.454545H2.9375ZM12.3551 1.32812L11.8835 2.20996L11.8881 2.21238L12.3551 1.32812ZM14.8835 3.82812L14.0049 4.30564L14.0074 4.31019L14.8835 3.82812ZM14.8906 11.6335L15.7684 12.1126L15.7692 12.111L14.8906 11.6335ZM12.3764 14.1335L12.8466 15.0161L12.8496 15.0145L12.3764 14.1335ZM6.88636 11.6477H5.88636V12.6477H6.88636V11.6477ZM10.2315 11.2997L9.81836 10.3891L9.81517 10.3905L10.2315 11.2997ZM11.3963 10.0994L10.493 9.67036L10.4901 9.67655L11.3963 10.0994ZM11.3892 5.35511L10.4859 5.78418L10.4889 5.79028L11.3892 5.35511ZM10.196 4.15483L9.78911 5.0683L9.79218 5.06966L10.196 4.15483ZM6.88636 3.80682V2.80682H5.88636V3.80682H6.88636ZM8.53409 14H2.9375V16H8.53409V14ZM3.9375 15V0.454545H1.9375V15H3.9375ZM2.9375 1.45455H8.47727V-0.545455H2.9375V1.45455ZM8.47727 1.45455C9.84348 1.45455 10.9673 1.71994 11.8835 2.20995L12.8267 0.446303C11.5649 -0.228461 10.1035 -0.545455 8.47727 -0.545455V1.45455ZM11.8881 2.21238C12.8072 2.69778 13.507 3.38943 14.0049 4.30564L15.7621 3.35061C15.0764 2.08879 14.0905 1.11377 12.8221 0.443872L11.8881 2.21238ZM14.0074 4.31019C14.5064 5.21712 14.7784 6.34323 14.7784 7.72727H16.7784C16.7784 6.08102 16.4538 4.60769 15.7597 3.34606L14.0074 4.31019ZM14.7784 7.72727C14.7784 9.11236 14.5083 10.2428 14.012 11.156L15.7692 12.111C16.4566 10.8463 16.7784 9.37249 16.7784 7.72727H14.7784ZM14.0129 11.1544C13.5137 12.069 12.8159 12.7624 11.9032 13.2526L12.8496 15.0145C14.1055 14.3399 15.0839 13.3666 15.7684 12.1126L14.0129 11.1544ZM11.9062 13.251C10.9932 13.7374 9.88037 14 8.53409 14V16C10.1424 16 11.591 15.685 12.8466 15.0161L11.9062 13.251ZM6.88636 12.6477H8.39205V10.6477H6.88636V12.6477ZM8.39205 12.6477C9.21518 12.6477 9.97839 12.5155 10.6479 12.2089L9.81517 10.3905C9.47142 10.5479 9.0083 10.6477 8.39205 10.6477V12.6477ZM10.6447 12.2104C11.399 11.8682 11.949 11.2797 12.3025 10.5223L10.4901 9.67655C10.3133 10.0555 10.0868 10.2673 9.81837 10.3891L10.6447 12.2104ZM12.2996 10.5285C12.6604 9.76881 12.8011 8.80855 12.8011 7.72727H10.8011C10.8011 8.67251 10.672 9.29368 10.493 9.67037L12.2996 10.5285ZM12.8011 7.72727C12.8011 6.64445 12.6577 5.68167 12.2896 4.91994L10.4889 5.79028C10.6699 6.16492 10.8011 6.78358 10.8011 7.72727H12.8011ZM12.2925 4.92606C11.9302 4.16344 11.3662 3.57828 10.5999 3.24L9.79218 5.06966C10.077 5.19539 10.3084 5.41043 10.4859 5.78417L12.2925 4.92606ZM10.6029 3.24136C9.91931 2.93684 9.13241 2.80682 8.27841 2.80682V4.80682C8.93957 4.80682 9.43107 4.90881 9.78911 5.0683L10.6029 3.24136ZM8.27841 2.80682H6.88636V4.80682H8.27841V2.80682ZM5.88636 3.80682V11.6477H7.88636V3.80682H5.88636ZM22.4555 14.8295L22.0546 15.7458L22.0645 15.75L22.4555 14.8295ZM21.2055 13.7784L20.3657 14.3213L21.2055 13.7784ZM21.0563 10.4616L21.9567 10.8967L21.9586 10.8927L21.0563 10.4616ZM21.9086 9.41761L22.5036 10.2214V10.2214L21.9086 9.41761ZM23.1799 8.79972L22.9003 7.83961L22.8977 7.84035L23.1799 8.79972ZM24.7566 8.52273L24.832 9.51988L24.8339 9.51974L24.7566 8.52273ZM26.2268 8.35227L26.4035 9.33659L26.4133 9.33472L26.2268 8.35227ZM27.0364 8.06108L27.6328 8.86382L27.64 8.85841L27.6472 8.85286L27.0364 8.06108ZM26.9583 6.875L26.3872 7.6959V7.69591L26.9583 6.875ZM25.204 6.89631L25.7741 7.7179L25.7775 7.71554L25.204 6.89631ZM24.785 7.64205V8.64205H25.654L25.7752 7.78151L24.785 7.64205ZM21.1771 7.64205L20.1796 7.5708L20.1031 8.64205H21.1771V7.64205ZM21.8092 5.80966L20.9793 5.25174L20.9782 5.25333L21.8092 5.80966ZM23.464 4.46023L23.8849 5.36733L23.8898 5.36505L23.464 4.46023ZM28.2793 4.22585L27.994 5.1843L28.0007 5.18626L28.2793 4.22585ZM29.8631 4.9858L29.2631 5.78581L29.2687 5.78997L29.8631 4.9858ZM30.8575 6.12216L29.9708 6.58476L29.977 6.59626L30.8575 6.12216ZM31.2055 15V16H32.2055V15H31.2055ZM27.5407 15H26.5407V16H27.5407V15ZM27.5407 13.4659H28.5407V12.4659H27.5407V13.4659ZM27.4555 13.4659V12.4659H26.8563L26.5737 12.9943L27.4555 13.4659ZM26.66 14.4531L26.0339 13.6734L26.0281 13.6781L26.66 14.4531ZM25.6018 15L25.3271 14.0385L25.324 14.0394L25.6018 15ZM26.4185 12.5142L25.9974 11.6072L25.9912 11.6101L26.4185 12.5142ZM27.0648 11.9815L26.2511 11.4003V11.4003L27.0648 11.9815ZM27.3134 10.2273H28.3134V8.73774L26.9348 9.30173L27.3134 10.2273ZM26.9796 10.348L26.6748 9.39552L26.6634 9.39933L26.9796 10.348ZM26.6103 10.4545L26.3678 9.48437L26.3593 9.48655L26.6103 10.4545ZM26.1984 10.5469L26.0083 9.56508L26.0023 9.56629L26.1984 10.5469ZM25.7509 10.625L25.6011 9.63627L25.5965 9.63699L25.7509 10.625ZM25.0052 10.8594L25.4871 11.7356L25.4944 11.7315L25.0052 10.8594ZM24.579 11.25L23.7238 10.7317L23.7192 10.7395L24.579 11.25ZM24.7637 12.4574L25.3665 11.6595L24.7637 12.4574ZM24.3021 14.1705C23.7144 14.1705 23.236 14.0746 22.8464 13.9091L22.0645 15.75C22.7451 16.039 23.4977 16.1705 24.3021 16.1705V14.1705ZM22.8563 13.9134C22.4987 13.757 22.2377 13.5331 22.0453 13.2355L20.3657 14.3213C20.7793 14.9612 21.3516 15.4381 22.0546 15.7457L22.8563 13.9134ZM22.0453 13.2355C21.8738 12.9703 21.7509 12.577 21.7509 11.9886H19.7509C19.7509 12.8491 19.9311 13.6491 20.3657 14.3213L22.0453 13.2355ZM21.7509 11.9886C21.7509 11.5026 21.8341 11.1504 21.9567 10.8967L20.1559 10.0266C19.8713 10.6157 19.7509 11.2815 19.7509 11.9886H21.7509ZM21.9586 10.8927C22.0948 10.6078 22.2758 10.3899 22.5036 10.2214L21.3136 8.61387C20.8122 8.98505 20.4251 9.46323 20.154 10.0305L21.9586 10.8927ZM22.5036 10.2214C22.764 10.0285 23.0794 9.87163 23.4621 9.75908L22.8977 7.84035C22.3145 8.01189 21.7823 8.26691 21.3136 8.61387L22.5036 10.2214ZM23.4595 9.75982C23.8737 9.6392 24.3301 9.55784 24.832 9.51988L24.6812 7.52557C24.0562 7.57284 23.4615 7.67614 22.9003 7.83961L23.4595 9.75982ZM24.8339 9.51974C25.46 9.4712 25.9873 9.41124 26.4034 9.33654L26.0501 7.368C25.7276 7.42588 25.2748 7.47956 24.6793 7.52572L24.8339 9.51974ZM26.4133 9.33472C26.8309 9.25544 27.2822 9.12425 27.6328 8.86382L26.4401 7.25834C26.4599 7.24362 26.447 7.25799 26.3713 7.28521C26.2988 7.31128 26.1912 7.34115 26.0402 7.36983L26.4133 9.33472ZM27.6472 8.85286C28.0571 8.53671 28.285 8.07682 28.285 7.55682H26.285C26.285 7.52497 26.2923 7.46521 26.3259 7.39698C26.3595 7.3289 26.4019 7.28757 26.4256 7.2693L27.6472 8.85286ZM28.285 7.55682V7.52841H26.285V7.55682H28.285ZM28.285 7.52841C28.285 6.94428 28.0376 6.40762 27.5294 6.05409L26.3872 7.69591C26.3714 7.68489 26.3359 7.65312 26.3089 7.5992C26.2832 7.54786 26.285 7.51578 26.285 7.52841H28.285ZM27.5294 6.0541C27.1019 5.75675 26.6073 5.64773 26.1202 5.64773V7.64773C26.315 7.64773 26.3791 7.69022 26.3872 7.6959L27.5294 6.0541ZM26.1202 5.64773C25.6011 5.64773 25.0787 5.76338 24.6306 6.07708L25.7775 7.71554C25.8029 7.6978 25.8912 7.64773 26.1202 7.64773V5.64773ZM24.634 6.07472C24.1272 6.42634 23.8725 6.95086 23.7948 7.50258L25.7752 7.78151C25.7848 7.71362 25.7986 7.69069 25.7971 7.69335C25.7964 7.69462 25.7934 7.69939 25.7879 7.7055C25.7823 7.71164 25.7771 7.71583 25.7741 7.7179L24.634 6.07472ZM24.785 6.64205H21.1771V8.64205H24.785V6.64205ZM22.1745 7.71329C22.2093 7.22595 22.3616 6.782 22.6401 6.36598L20.9782 5.25333C20.5086 5.95474 20.2395 6.73238 20.1796 7.5708L22.1745 7.71329ZM22.6391 6.36757C22.8992 5.9806 23.2966 5.64033 23.8849 5.36732L23.0431 3.55314C22.1825 3.95247 21.4767 4.51183 20.9793 5.25174L22.6391 6.36757ZM23.8898 5.36505C24.4426 5.1049 25.1906 4.94886 26.1771 4.94886V2.94886C24.995 2.94886 23.9343 3.13373 23.0382 3.55541L23.8898 5.36505ZM26.1771 4.94886C26.881 4.94886 27.4832 5.0322 27.994 5.18428L28.5647 3.26742C27.835 3.05019 27.0356 2.94886 26.1771 2.94886V4.94886ZM28.0007 5.18626C28.5262 5.33867 28.9402 5.54362 29.2631 5.7858L30.4631 4.18579C29.9148 3.77456 29.273 3.47288 28.5579 3.26544L28.0007 5.18626ZM29.2687 5.78997C29.595 6.03109 29.8208 6.29699 29.9709 6.58472L31.744 5.65959C31.4396 5.07611 31.0025 4.58444 30.4575 4.18162L29.2687 5.78997ZM29.977 6.59626C30.1277 6.87618 30.2055 7.18121 30.2055 7.52841H32.2055C32.2055 6.86235 32.0512 6.22988 31.7379 5.64806L29.977 6.59626ZM30.2055 7.52841V15H32.2055V7.52841H30.2055ZM31.2055 14H27.5407V16H31.2055V14ZM28.5407 15V13.4659H26.5407V15H28.5407ZM27.5407 12.4659H27.4555V14.4659H27.5407V12.4659ZM26.5737 12.9943C26.4099 13.3005 26.2265 13.5187 26.0339 13.6734L27.2861 15.2328C27.7185 14.8856 28.0655 14.4457 28.3373 13.9376L26.5737 12.9943ZM26.0281 13.6781C25.8299 13.8397 25.5998 13.9605 25.3271 14.0385L25.8765 15.9615C26.3992 15.8122 26.8746 15.5684 27.292 15.2281L26.0281 13.6781ZM25.324 14.0394C25.0342 14.1232 24.696 14.1705 24.3021 14.1705V16.1705C24.8551 16.1705 25.3834 16.1041 25.8796 15.9606L25.324 14.0394ZM25.5805 13.6989C26.0212 13.6989 26.4471 13.6068 26.8459 13.4183L25.9912 11.6101C25.8692 11.6678 25.7364 11.6989 25.5805 11.6989V13.6989ZM26.8396 13.4212C27.2575 13.2272 27.6097 12.9392 27.8786 12.5628L26.2511 11.4003C26.1885 11.4879 26.1099 11.555 25.9974 11.6072L26.8396 13.4212ZM27.8786 12.5628C28.1843 12.1348 28.3134 11.6413 28.3134 11.1364H26.3134C26.3134 11.2943 26.2768 11.3643 26.2511 11.4003L27.8786 12.5628ZM28.3134 11.1364V10.2273H26.3134V11.1364H28.3134ZM26.9348 9.30173C26.8572 9.33346 26.7708 9.36488 26.6748 9.39559L27.2844 11.3004C27.4252 11.2554 27.5613 11.2063 27.6921 11.1528L26.9348 9.30173ZM26.6634 9.39933C26.5771 9.42808 26.4789 9.45662 26.3678 9.4844L26.8528 11.4247C27.0069 11.3862 27.1548 11.3437 27.2958 11.2967L26.6634 9.39933ZM26.3593 9.48655C26.2541 9.51384 26.1373 9.54014 26.0083 9.56509L26.3884 11.5287C26.553 11.4968 26.7108 11.4615 26.8613 11.4225L26.3593 9.48655ZM26.0023 9.56629C25.8769 9.59137 25.7432 9.61475 25.6011 9.63628L25.9007 11.6137C26.0711 11.5879 26.2358 11.5592 26.3945 11.5275L26.0023 9.56629ZM25.5965 9.63699C25.2172 9.69626 24.845 9.80263 24.5159 9.98723L25.4944 11.7315C25.5536 11.6983 25.6786 11.6484 25.9053 11.613L25.5965 9.63699ZM24.5233 9.98316C24.2085 10.1563 23.9248 10.4001 23.7239 10.7317L25.4342 11.7683C25.4298 11.7756 25.4274 11.7768 25.4323 11.7723C25.4379 11.7672 25.454 11.7538 25.4871 11.7356L24.5233 9.98316ZM23.7192 10.7395C23.5306 11.057 23.4441 11.4062 23.4441 11.7614H25.4441C25.4441 11.7464 25.4458 11.7427 25.4447 11.7466C25.4443 11.7483 25.4435 11.7508 25.4423 11.7537C25.4411 11.7566 25.4398 11.759 25.4389 11.7605L23.7192 10.7395ZM23.4441 11.7614C23.4441 12.3297 23.6615 12.878 24.1609 13.2553L25.3665 11.6595C25.374 11.6651 25.3862 11.6758 25.3997 11.6924C25.4133 11.7091 25.4246 11.7274 25.4328 11.7453C25.4498 11.7824 25.4441 11.7954 25.4441 11.7614H23.4441ZM24.1609 13.2553C24.5858 13.5763 25.0849 13.6989 25.5805 13.6989V11.6989C25.4132 11.6989 25.3677 11.6604 25.3665 11.6595L24.1609 13.2553ZM36.6787 15H35.6787V16H36.6787V15ZM36.6787 4.09091V3.09091H35.6787V4.09091H36.6787ZM40.4855 4.09091H41.4855V3.09091H40.4855V4.09091ZM40.4855 6.16477H39.4855V7.16477H40.4855V6.16477ZM40.5991 6.16477V7.16477H41.373L41.5671 6.41573L40.5991 6.16477ZM41.5438 4.48153L40.9119 3.70644L40.9077 3.70985L41.5438 4.48153ZM43.575 3.99148L43.406 4.9771L43.4217 4.97978L43.4374 4.98197L43.575 3.99148ZM44.0651 4.09801H45.0651V3.35614L44.3551 3.14099L44.0651 4.09801ZM44.0651 7.44318L43.7419 8.38953L45.0651 8.84134V7.44318H44.0651ZM43.3477 7.29403L43.4636 6.30077H43.4636L43.3477 7.29403ZM41.5793 7.5071L42.0695 8.37869L42.074 8.37617L41.5793 7.5071ZM40.8619 8.23153L41.731 8.72624L41.7342 8.72054L40.8619 8.23153ZM40.5991 15V16H41.5991V15H40.5991ZM37.6787 15V4.09091H35.6787V15H37.6787ZM36.6787 5.09091H40.4855V3.09091H36.6787V5.09091ZM39.4855 4.09091V6.16477H41.4855V4.09091H39.4855ZM40.4855 7.16477H40.5991V5.16477H40.4855V7.16477ZM41.5671 6.41573C41.7345 5.77013 41.9672 5.42839 42.1798 5.25322L40.9077 3.70985C40.2585 4.2449 39.8615 5.02532 39.6312 5.91381L41.5671 6.41573ZM42.1756 5.25662C42.4259 5.05259 42.7095 4.94886 43.0707 4.94886V2.94886C42.2672 2.94886 41.5328 3.20025 40.9119 3.70645L42.1756 5.25662ZM43.0707 4.94886C43.1853 4.94886 43.2969 4.95839 43.406 4.9771L43.744 3.00586C43.5217 2.96775 43.297 2.94886 43.0707 2.94886V4.94886ZM43.4374 4.98197C43.559 4.99886 43.6713 5.02359 43.7751 5.05504L44.3551 3.14099C44.1464 3.07774 43.9319 3.03144 43.7126 3.00099L43.4374 4.98197ZM43.0651 4.09801V7.44318H45.0651V4.09801H43.0651ZM44.3882 6.49683C44.1064 6.40059 43.7929 6.33919 43.4636 6.30077L43.2318 8.2873C43.4707 8.31517 43.6355 8.3532 43.7419 8.38953L44.3882 6.49683ZM43.4636 6.30077C43.1551 6.26478 42.8705 6.24432 42.6162 6.24432V8.24432C42.7691 8.24432 42.9721 8.257 43.2318 8.2873L43.4636 6.30077ZM42.6162 6.24432C42.074 6.24432 41.5555 6.36998 41.0846 6.63804L42.074 8.37617C42.2186 8.29384 42.3913 8.24432 42.6162 8.24432V6.24432ZM41.089 6.63553C40.6209 6.89884 40.2518 7.27497 39.9897 7.74253L41.7342 8.72054C41.8225 8.5631 41.9316 8.45627 42.0695 8.37868L41.089 6.63553ZM39.9929 7.73684C39.7178 8.22004 39.5991 8.75886 39.5991 9.31818H41.5991C41.5991 9.04417 41.6557 8.85856 41.731 8.72623L39.9929 7.73684ZM39.5991 9.31818V15H41.5991V9.31818H39.5991ZM40.5991 14H36.6787V16H40.5991V14ZM52.4733 12.4148L51.4733 12.4087L51.4555 15.3379L53.2608 13.0311L52.4733 12.4148ZM52.5017 7.75568V6.75568H51.5078L51.5017 7.74958L52.5017 7.75568ZM53.0131 7.75568V8.75568H53.5249L53.8242 8.34048L53.0131 7.75568ZM55.6551 4.09091V3.09091H55.1433L54.8439 3.50611L55.6551 4.09091ZM60.0585 4.09091L60.8485 4.70403L62.1005 3.09091H60.0585V4.09091ZM55.6267 9.80114V10.8011H56.1164L56.4167 10.4143L55.6267 9.80114ZM54.5187 9.80114V8.80114H54.0315L53.7312 9.18483L54.5187 9.80114ZM48.9506 15H47.9506V16H48.9506V15ZM48.9506 0.454545V-0.545455H47.9506V0.454545H48.9506ZM52.871 0.454545H53.871V-0.545455H52.871V0.454545ZM52.871 15V16H53.871V15H52.871ZM55.6835 15L54.8181 15.501L55.107 16H55.6835V15ZM53.1835 10.6818L52.447 10.0054L51.9498 10.5468L52.3181 11.1829L53.1835 10.6818ZM55.7403 7.89773L56.5887 7.36834L55.8929 6.25322L55.0038 7.22132L55.7403 7.89773ZM60.1722 15V16H61.9749L61.0205 14.4706L60.1722 15ZM53.4733 12.4209L53.5017 7.76178L51.5017 7.74958L51.4733 12.4087L53.4733 12.4209ZM52.5017 8.75568H53.0131V6.75568H52.5017V8.75568ZM53.8242 8.34048L56.4663 4.67571L54.8439 3.50611L52.2019 7.17088L53.8242 8.34048ZM55.6551 5.09091H60.0585V3.09091H55.6551V5.09091ZM59.2685 3.47778L54.8367 9.18801L56.4167 10.4143L60.8485 4.70403L59.2685 3.47778ZM55.6267 8.80114H54.5187V10.8011H55.6267V8.80114ZM53.7312 9.18483L51.6858 11.7985L53.2608 13.0311L55.3063 10.4174L53.7312 9.18483ZM49.9506 15V0.454545H47.9506V15H49.9506ZM48.9506 1.45455H52.871V-0.545455H48.9506V1.45455ZM51.871 0.454545V15H53.871V0.454545H51.871ZM52.871 14H48.9506V16H52.871V14ZM56.549 14.499L54.049 10.1808L52.3181 11.1829L54.8181 15.501L56.549 14.499ZM53.9201 11.3582L56.4769 8.57413L55.0038 7.22132L52.447 10.0054L53.9201 11.3582ZM54.892 8.42712L59.3238 15.5294L61.0205 14.4706L56.5887 7.36834L54.892 8.42712ZM60.1722 14H55.6835V16H60.1722V14ZM66.4462 14.5312L65.9732 15.4124L65.9792 15.4155L66.4462 14.5312ZM64.5072 12.5994L63.625 13.0703L63.6282 13.0762L64.5072 12.5994ZM64.5143 6.61932L65.3945 7.09401L64.5143 6.61932ZM66.4391 4.65199L66.9314 5.52237V5.52237L66.4391 4.65199ZM71.6095 4.33239L71.9672 3.39853L71.6095 4.33239ZM73.3212 5.44744L72.6037 6.14403L72.6071 6.14751L73.3212 5.44744ZM74.4149 7.20881L73.477 7.5557V7.5557L74.4149 7.20881ZM74.7984 10.4545V11.4545H75.7984V10.4545H74.7984ZM65.0541 10.4545H64.0541V11.4545H65.0541V10.4545ZM65.0541 8.29545V7.29545H64.0541V8.29545H65.0541ZM71.1905 8.29545V9.29545H72.2057L72.1904 8.2803L71.1905 8.29545ZM70.949 7.47159L70.1019 8.00308L70.1081 8.01283L70.1144 8.02243L70.949 7.47159ZM70.3311 6.91051L69.858 7.7915L69.8676 7.7967L69.8774 7.80167L70.3311 6.91051ZM68.584 6.91051L69.0312 7.80494L69.0375 7.80177L69.0438 7.79851L68.584 6.91051ZM67.9447 7.46449L67.1177 6.90212L67.1101 6.91365L67.9447 7.46449ZM67.6962 8.29545L66.6966 8.26562L66.6962 8.28053V8.29545H67.6962ZM67.9163 11.5625L67.0344 12.0339L67.9163 11.5625ZM68.5484 12.2088L68.0539 13.078L68.5484 12.2088ZM70.2814 12.3295L69.9652 11.3808L69.9591 11.3829L70.2814 12.3295ZM70.8638 12.0028L71.5254 12.7527L71.5315 12.7473L71.5375 12.7418L70.8638 12.0028ZM71.2189 11.4773V10.4773H70.524L70.2817 11.1285L71.2189 11.4773ZM74.7984 11.4773L75.7855 11.6377L75.9741 10.4773H74.7984V11.4773ZM73.9249 13.4517L74.6947 14.09L74.6974 14.0867L73.9249 13.4517ZM72.0996 14.7443L72.473 15.672L72.476 15.6708L72.0996 14.7443ZM69.4575 14.1989C68.4198 14.1989 67.5835 14.001 66.9131 13.647L65.9792 15.4155C66.9945 15.9517 68.1657 16.1989 69.4575 16.1989V14.1989ZM66.9191 13.6501C66.2534 13.2928 65.748 12.7897 65.3863 12.1227L63.6282 13.0762C64.1756 14.0853 64.9628 14.87 65.9733 15.4124L66.9191 13.6501ZM65.3895 12.1286C65.0328 11.4602 64.8325 10.621 64.8325 9.57386H62.8325C62.8325 10.8752 63.0821 12.053 63.625 13.0703L65.3895 12.1286ZM64.8325 9.57386C64.8325 8.58334 65.0315 7.76714 65.3945 7.09401L63.6342 6.14463C63.0881 7.1571 62.8325 8.3106 62.8325 9.57386H64.8325ZM65.3945 7.09401C65.7602 6.41596 66.2678 5.8978 66.9314 5.52237L65.9467 3.78161C64.9531 4.34368 64.1776 5.13707 63.6342 6.14463L65.3945 7.09401ZM66.9314 5.52237C67.5844 5.15298 68.3862 4.94886 69.3723 4.94886V2.94886C68.1047 2.94886 66.9509 3.21349 65.9467 3.78161L66.9314 5.52237ZM69.3723 4.94886C70.0923 4.94886 70.7144 5.06041 71.2519 5.26624L71.9672 3.39853C71.1694 3.093 70.3 2.94886 69.3723 2.94886V4.94886ZM71.2519 5.26624C71.7909 5.47268 72.2367 5.76603 72.6037 6.14402L74.0386 4.75086C73.4587 4.15348 72.7634 3.70345 71.9672 3.39853L71.2519 5.26624ZM72.6071 6.14751C72.9733 6.52108 73.2658 6.9846 73.477 7.5557L75.3528 6.86191C75.0527 6.05044 74.616 5.33971 74.0352 4.74737L72.6071 6.14751ZM73.477 7.5557C73.6851 8.11833 73.7984 8.77702 73.7984 9.54545H75.7984C75.7984 8.58094 75.6561 7.68185 75.3528 6.86191L73.477 7.5557ZM73.7984 9.54545V10.4545H75.7984V9.54545H73.7984ZM74.7984 9.45455H65.0541V11.4545H74.7984V9.45455ZM66.0541 10.4545V8.29545H64.0541V10.4545H66.0541ZM65.0541 9.29545H71.1905V7.29545H65.0541V9.29545ZM72.1904 8.2803C72.1831 7.79725 72.0555 7.33264 71.7836 6.92075L70.1144 8.02243C70.155 8.08402 70.1884 8.16866 70.1906 8.31061L72.1904 8.2803ZM71.7961 6.9401C71.5459 6.54136 71.2022 6.23186 70.7848 6.01935L69.8774 7.80167C69.9808 7.85432 70.0491 7.91886 70.1019 8.00308L71.7961 6.9401ZM70.8042 6.02952C70.3856 5.8047 69.9283 5.70455 69.4575 5.70455V7.70455C69.6402 7.70455 69.7653 7.7417 69.858 7.7915L70.8042 6.02952ZM69.4575 5.70455C68.9905 5.70455 68.5402 5.80703 68.1241 6.02252L69.0438 7.79851C69.158 7.73937 69.2901 7.70455 69.4575 7.70455V5.70455ZM68.1367 6.01608C67.7244 6.22227 67.3784 6.51897 67.1178 6.90218L68.7717 8.0268C68.8331 7.93652 68.9132 7.8639 69.0312 7.80494L68.1367 6.01608ZM67.1101 6.91365C66.8398 7.32329 66.7109 7.78546 66.6966 8.26562L68.6957 8.32529C68.7003 8.17098 68.7372 8.07917 68.7794 8.01533L67.1101 6.91365ZM66.6962 8.29545V10.625H68.6962V8.29545H66.6962ZM66.6962 10.625C66.6962 11.1189 66.8008 11.5969 67.0344 12.0339L68.7983 11.0911C68.7383 10.9789 68.6962 10.8318 68.6962 10.625H66.6962ZM67.0344 12.0339C67.2716 12.4776 67.6177 12.8298 68.0539 13.078L69.043 11.3396C68.9299 11.2753 68.8547 11.1967 68.7983 11.0911L67.0344 12.0339ZM68.0539 13.078C68.5101 13.3375 69.0205 13.4432 69.5428 13.4432V11.4432C69.2885 11.4432 69.136 11.3926 69.043 11.3396L68.0539 13.078ZM69.5428 13.4432C69.9063 13.4432 70.2633 13.3921 70.6037 13.2762L69.9591 11.3829C69.8545 11.4185 69.719 11.4432 69.5428 11.4432V13.4432ZM70.5976 13.2782C70.9374 13.165 71.2527 12.9933 71.5254 12.7527L70.2022 11.253C70.1528 11.2965 70.0799 11.3426 69.9652 11.3809L70.5976 13.2782ZM71.5375 12.7418C71.8158 12.4881 72.0247 12.1792 72.1561 11.826L70.2817 11.1285C70.2616 11.1825 70.2337 11.224 70.19 11.2639L71.5375 12.7418ZM71.2189 12.4773H74.7984V10.4773H71.2189V12.4773ZM73.8114 11.3169C73.7148 11.9111 73.4925 12.4029 73.1524 12.8167L74.6974 14.0867C75.2757 13.3831 75.6358 12.5585 75.7855 11.6377L73.8114 11.3169ZM73.155 12.8135C72.8147 13.2239 72.3489 13.5636 71.7232 13.8179L72.476 15.6708C73.3654 15.3095 74.1164 14.7874 74.6947 14.0899L73.155 12.8135ZM71.7262 13.8166C71.117 14.0618 70.3681 14.1989 69.4575 14.1989V16.1989C70.564 16.1989 71.5765 16.0328 72.473 15.672L71.7262 13.8166ZM83.9187 8.86364L82.9187 8.85048V8.86364H83.9187ZM83.9187 15V16H84.9187V15H83.9187ZM79.9982 15H78.9982V16H79.9982V15ZM79.9982 4.09091V3.09091H78.9982V4.09091H79.9982ZM83.7198 4.09091H84.7198V3.09091H83.7198V4.09091ZM83.7198 6.16477H82.7198V7.16477H83.7198V6.16477ZM83.8335 6.16477V7.16477H84.548L84.7795 6.48877L83.8335 6.16477ZM85.0835 4.53835L84.5364 3.70126L84.5333 3.70326L85.0835 4.53835ZM89.1957 4.48153L88.6656 5.32957L88.6739 5.33464L89.1957 4.48153ZM90.5238 5.9304L89.6321 6.3831L89.6349 6.38852L90.5238 5.9304ZM90.9925 8.03977L89.9925 8.03378V8.03977H90.9925ZM90.9925 15V16H91.9925V15H90.9925ZM87.0721 15H86.0721V16H87.0721V15ZM87.0721 8.86364L86.0721 8.85486V8.86364H87.0721ZM86.6602 7.59233L85.914 8.25814L85.9197 8.26444L86.6602 7.59233ZM84.6644 7.34375L85.1661 8.2088L85.1714 8.20568L84.6644 7.34375ZM84.1175 7.94034L85.012 8.38757L85.0152 8.38101L84.1175 7.94034ZM82.9187 8.86364V15H84.9187V8.86364H82.9187ZM83.9187 14H79.9982V16H83.9187V14ZM80.9982 15V4.09091H78.9982V15H80.9982ZM79.9982 5.09091H83.7198V3.09091H79.9982V5.09091ZM82.7198 4.09091V6.16477H84.7198V4.09091H82.7198ZM83.7198 7.16477H83.8335V5.16477H83.7198V7.16477ZM84.7795 6.48877C84.9463 6.00182 85.2264 5.64165 85.6336 5.37345L84.5333 3.70326C83.7473 4.22104 83.1941 4.94515 82.8874 5.84078L84.7795 6.48877ZM85.6305 5.37544C86.051 5.10063 86.5569 4.94886 87.1857 4.94886V2.94886C86.2141 2.94886 85.3185 3.19009 84.5364 3.70127L85.6305 5.37544ZM87.1857 4.94886C87.7991 4.94886 88.2794 5.0881 88.6657 5.32953L89.7257 3.63354C88.9756 3.16474 88.1159 2.94886 87.1857 2.94886V4.94886ZM88.6739 5.33464C89.0843 5.58558 89.401 5.92786 89.6321 6.38309L91.4155 5.47771C91.0216 4.70187 90.4529 4.07824 89.7174 3.62843L88.6739 5.33464ZM89.6349 6.38852C89.8683 6.84137 89.9965 7.38138 89.9926 8.03378L91.9925 8.04576C91.9981 7.11673 91.8138 6.25048 91.4127 5.47228L89.6349 6.38852ZM89.9925 8.03977V15H91.9925V8.03977H89.9925ZM90.9925 14H87.0721V16H90.9925V14ZM88.0721 15V8.86364H86.0721V15H88.0721ZM88.0721 8.87241C88.0783 8.15852 87.8947 7.46456 87.4006 6.92022L85.9197 8.26444C85.9843 8.33563 86.0753 8.48921 86.0721 8.85486L88.0721 8.87241ZM87.4063 6.92654C86.9052 6.36494 86.2267 6.13068 85.5096 6.13068V8.13068C85.7774 8.13068 85.8659 8.20418 85.914 8.25812L87.4063 6.92654ZM85.5096 6.13068C85.0364 6.13068 84.5743 6.23659 84.1574 6.48182L85.1714 8.20568C85.2375 8.16682 85.3389 8.13068 85.5096 8.13068V6.13068ZM84.1627 6.47872C83.7444 6.72131 83.4293 7.07297 83.2199 7.49967L85.0152 8.38101C85.0614 8.28687 85.1109 8.24081 85.1661 8.20878L84.1627 6.47872ZM83.2231 7.49313C83.0127 7.91397 82.925 8.37781 82.9188 8.85048L84.9186 8.87679C84.9218 8.62976 84.9667 8.47807 85.012 8.38755L83.2231 7.49313ZM96.4711 15H95.4711V16H96.4711V15ZM96.4711 0.454545V-0.545455H95.4711V0.454545H96.4711ZM100.42 0.454545H101.42V-0.545455H100.42V0.454545ZM100.42 6.13636H99.42V7.13636H100.42V6.13636ZM105.647 6.13636V7.13636H106.647V6.13636H105.647ZM105.647 0.454545V-0.545455H104.647V0.454545H105.647ZM109.596 0.454545H110.596V-0.545455H109.596V0.454545ZM109.596 15V16H110.596V15H109.596ZM105.647 15H104.647V16H105.647V15ZM105.647 9.31818H106.647V8.31818H105.647V9.31818ZM100.42 9.31818V8.31818H99.42V9.31818H100.42ZM100.42 15V16H101.42V15H100.42ZM97.4711 15V0.454545H95.4711V15H97.4711ZM96.4711 1.45455H100.42V-0.545455H96.4711V1.45455ZM99.42 0.454545V6.13636H101.42V0.454545H99.42ZM100.42 7.13636H105.647V5.13636H100.42V7.13636ZM106.647 6.13636V0.454545H104.647V6.13636H106.647ZM105.647 1.45455H109.596V-0.545455H105.647V1.45455ZM108.596 0.454545V15H110.596V0.454545H108.596ZM109.596 14H105.647V16H109.596V14ZM106.647 15V9.31818H104.647V15H106.647ZM105.647 8.31818H100.42V10.3182H105.647V8.31818ZM99.42 9.31818V15H101.42V9.31818H99.42ZM100.42 14H96.4711V16H100.42V14ZM122.202 10.2273H121.202L121.202 10.2404L122.202 10.2273ZM122.202 4.09091V3.09091H121.202V4.09091H122.202ZM126.122 4.09091H127.122V3.09091H126.122V4.09091ZM126.122 15V16H127.122V15H126.122ZM122.401 15H121.401V16H122.401V15ZM122.401 12.9261H123.401V11.9261H122.401V12.9261ZM122.287 12.9261V11.9261H121.571L121.34 12.6041L122.287 12.9261ZM121.044 14.5597L121.593 15.3958L121.597 15.3927L121.044 14.5597ZM116.932 14.6165L116.407 15.4677L116.41 15.4696L116.932 14.6165ZM115.604 13.1676L114.712 13.6203L114.715 13.6257L115.604 13.1676ZM115.128 11.0511H114.128L114.128 11.0571L115.128 11.0511ZM115.128 4.09091V3.09091H114.128V4.09091H115.128ZM119.048 4.09091H120.048V3.09091H119.048V4.09091ZM119.048 10.2273H118.048L118.048 10.236L119.048 10.2273ZM119.46 11.4986L118.708 12.1579L118.714 12.1644L119.46 11.4986ZM121.456 11.7543L121.958 12.6193L121.963 12.6162L121.456 11.7543ZM122.01 11.1577L121.119 10.704L121.116 10.7105L122.01 11.1577ZM123.202 10.2273V4.09091H121.202V10.2273H123.202ZM122.202 5.09091H126.122V3.09091H122.202V5.09091ZM125.122 4.09091V15H127.122V4.09091H125.122ZM126.122 14H122.401V16H126.122V14ZM123.401 15V12.9261H121.401V15H123.401ZM122.401 11.9261H122.287V13.9261H122.401V11.9261ZM121.34 12.6041C121.172 13.0988 120.892 13.4603 120.491 13.7266L121.597 15.3927C122.38 14.873 122.929 14.1455 123.234 13.2482L121.34 12.6041ZM120.496 13.7235C120.09 13.9895 119.584 14.142 118.935 14.142V16.142C119.914 16.142 120.814 15.9064 121.593 15.3958L120.496 13.7235ZM118.935 14.142C118.331 14.142 117.849 14.0052 117.454 13.7634L116.41 15.4696C117.161 15.9285 118.014 16.142 118.935 16.142V14.142ZM117.457 13.7653C117.049 13.5141 116.73 13.1697 116.493 12.7095L114.715 13.6257C115.112 14.3966 115.678 15.0181 116.407 15.4676L117.457 13.7653ZM116.495 12.7149C116.263 12.2576 116.132 11.709 116.128 11.0452L114.128 11.0571C114.133 11.9841 114.319 12.8466 114.712 13.6203L116.495 12.7149ZM116.128 11.0511V4.09091H114.128V11.0511H116.128ZM115.128 5.09091H119.048V3.09091H115.128V5.09091ZM118.048 4.09091V10.2273H120.048V4.09091H118.048ZM118.048 10.236C118.055 10.9379 118.236 11.6192 118.708 12.1579L120.212 10.8393C120.145 10.7624 120.052 10.5962 120.048 10.2185L118.048 10.236ZM118.714 12.1644C119.215 12.726 119.894 12.9602 120.611 12.9602V10.9602C120.343 10.9602 120.255 10.8867 120.206 10.8328L118.714 12.1644ZM120.611 12.9602C121.08 12.9602 121.541 12.8607 121.958 12.6193L120.954 10.8892C120.897 10.9224 120.796 10.9602 120.611 10.9602V12.9602ZM121.963 12.6162C122.375 12.3741 122.692 12.0296 122.904 11.6049L121.116 10.7105C121.072 10.7971 121.02 10.8503 120.949 10.8923L121.963 12.6162ZM122.901 11.6114C123.122 11.1767 123.208 10.6991 123.202 10.2141L121.202 10.2404C121.205 10.4751 121.163 10.6178 121.119 10.704L122.901 11.6114ZM131.659 15H130.659V16H131.659V15ZM131.659 0.454545V-0.545455H130.659V0.454545H131.659ZM135.58 0.454545H136.58V-0.545455H135.58V0.454545ZM135.58 5.99432H134.58V6.99432H135.58V5.99432ZM135.637 5.99432V6.99432H136.323L136.57 6.3533L135.637 5.99432ZM136.262 4.97869L137.008 5.6445L137.013 5.63881L136.262 4.97869ZM137.284 4.23295L137.697 5.14372L137.706 5.13968L137.284 4.23295ZM140.757 4.52415L140.248 5.38495L140.251 5.38656L140.757 4.52415ZM142.348 6.33523L141.452 6.77832L141.454 6.78244L142.348 6.33523ZM142.377 12.6776L141.473 12.249L141.471 12.2533L142.377 12.6776ZM140.814 14.5312L140.285 13.6826L140.283 13.6843L140.814 14.5312ZM137.306 14.8935L136.912 15.8126L136.918 15.8154L136.925 15.8181L137.306 14.8935ZM136.283 14.2045L135.559 14.8939L135.564 14.8999L135.57 14.9058L136.283 14.2045ZM135.637 13.2102L136.562 12.8307L136.307 12.2102H135.637V13.2102ZM135.551 13.2102V12.2102H134.551V13.2102H135.551ZM135.551 15V16H136.551V15H135.551ZM135.701 10.9233L134.758 11.2567L134.76 11.2637L134.763 11.2706L135.701 10.9233ZM136.297 11.8182L135.657 12.5864L135.665 12.5928L135.672 12.5991L136.297 11.8182ZM138.144 11.8253L138.774 12.6018L138.775 12.6005L138.144 11.8253ZM138.726 10.9375L137.783 10.6041L137.781 10.6108L138.726 10.9375ZM138.726 8.16051L137.78 8.48365L137.782 8.49064L137.785 8.49758L138.726 8.16051ZM138.144 7.27273L137.505 8.04214L137.513 8.04865L137.521 8.05501L138.144 7.27273ZM136.297 7.27273L136.92 8.05501L136.922 8.0536L136.297 7.27273ZM135.701 8.16051L134.761 7.81692L134.759 7.82344L135.701 8.16051ZM132.659 15V0.454545H130.659V15H132.659ZM131.659 1.45455H135.58V-0.545455H131.659V1.45455ZM134.58 0.454545V5.99432H136.58V0.454545H134.58ZM135.58 6.99432H135.637V4.99432H135.58V6.99432ZM136.57 6.3533C136.667 6.10146 136.81 5.866 137.008 5.64448L135.516 4.31291C135.164 4.70692 134.891 5.14854 134.703 5.63534L136.57 6.3533ZM137.013 5.63881C137.187 5.44069 137.41 5.27419 137.697 5.14368L136.871 3.32223C136.345 3.56104 135.886 3.89169 135.51 4.31858L137.013 5.63881ZM137.706 5.13968C137.957 5.02287 138.282 4.94886 138.705 4.94886V2.94886C138.048 2.94886 137.426 3.06425 136.863 3.32623L137.706 5.13968ZM138.705 4.94886C139.237 4.94886 139.746 5.08808 140.248 5.38495L141.266 3.66335C140.471 3.19317 139.612 2.94886 138.705 2.94886V4.94886ZM140.251 5.38656C140.704 5.65208 141.112 6.09169 141.452 6.77831L143.245 5.89214C142.77 4.93103 142.118 4.16326 141.264 3.66173L140.251 5.38656ZM141.454 6.78244C141.773 7.42091 141.966 8.3223 141.966 9.54545H143.966C143.966 8.13603 143.747 6.89727 143.243 5.88801L141.454 6.78244ZM141.966 9.54545C141.966 10.7089 141.784 11.5946 141.473 12.249L143.28 13.1061C143.756 12.1033 143.966 10.901 143.966 9.54545H141.966ZM141.471 12.2533C141.149 12.9405 140.746 13.3954 140.285 13.6826L141.343 15.3799C142.189 14.8527 142.828 14.0719 143.282 13.1019L141.471 12.2533ZM140.283 13.6843C139.795 13.99 139.268 14.142 138.676 14.142V16.142C139.638 16.142 140.536 15.8869 141.346 15.3782L140.283 13.6843ZM138.676 14.142C138.273 14.142 137.949 14.0769 137.686 13.9688L136.925 15.8181C137.467 16.0415 138.057 16.142 138.676 16.142V14.142ZM137.7 13.9743C137.413 13.8515 137.183 13.6933 136.996 13.5033L135.57 14.9058C135.951 15.2935 136.403 15.5945 136.912 15.8126L137.7 13.9743ZM137.007 13.5152C136.812 13.3101 136.665 13.0834 136.562 12.8307L134.711 13.5898C134.911 14.0757 135.195 14.5118 135.559 14.8939L137.007 13.5152ZM135.637 12.2102H135.551V14.2102H135.637V12.2102ZM134.551 13.2102V15H136.551V13.2102H134.551ZM135.551 14H131.659V16H135.551V14ZM134.495 9.54545C134.495 10.1583 134.573 10.7356 134.758 11.2567L136.643 10.5899C136.553 10.3345 136.495 9.9932 136.495 9.54545H134.495ZM134.763 11.2706C134.952 11.7808 135.24 12.2385 135.657 12.5864L136.937 11.05C136.843 10.9717 136.733 10.8329 136.638 10.576L134.763 11.2706ZM135.672 12.5991C136.125 12.9608 136.66 13.1307 137.228 13.1307V11.1307C137.076 11.1307 136.991 11.0923 136.922 11.0373L135.672 12.5991ZM137.228 13.1307C137.789 13.1307 138.324 12.9665 138.774 12.6018L137.514 11.0487C137.461 11.0912 137.386 11.1307 137.228 11.1307V13.1307ZM138.775 12.6005C139.205 12.2503 139.492 11.783 139.671 11.2642L137.781 10.6108C137.695 10.859 137.594 10.9836 137.512 11.05L138.775 12.6005ZM139.669 11.2709C139.854 10.7481 139.932 10.1655 139.932 9.54545H137.932C137.932 10.005 137.873 10.3504 137.783 10.6041L139.669 11.2709ZM139.932 9.54545C139.932 8.92593 139.854 8.34388 139.668 7.82344L137.785 8.49758C137.873 8.74419 137.932 9.08543 137.932 9.54545H139.932ZM139.672 7.83737C139.494 7.31428 139.206 6.84007 138.767 6.49045L137.521 8.05501C137.593 8.11258 137.693 8.23022 137.78 8.48365L139.672 7.83737ZM138.783 6.50332C138.333 6.13031 137.795 5.96023 137.228 5.96023V7.96023C137.38 7.96023 137.452 7.99848 137.505 8.04214L138.783 6.50332ZM137.228 5.96023C136.66 5.96023 136.125 6.13013 135.672 6.49186L136.922 8.0536C136.991 7.99866 137.076 7.96023 137.228 7.96023V5.96023ZM135.674 6.49045C135.241 6.83513 134.95 7.30137 134.761 7.81693L136.64 8.50409C136.735 8.24314 136.842 8.11752 136.92 8.05501L135.674 6.49045ZM134.759 7.82344C134.573 8.34388 134.495 8.92593 134.495 9.54545H136.495C136.495 9.08543 136.554 8.74419 136.642 8.49758L134.759 7.82344Z"
            fill="black" mask="url(#path-1-outside-1_1_195)" />
    </g>
    <defs>
        <filter id="filter0_d_1_195" x="-1.0625" y="0.454529" width="148.029" height="22.7443"
            filterUnits="userSpaceOnUse" color-interpolation-filters="sRGB">
            <feFlood flood-opacity="0" result="BackgroundImageFix" />
            <feColorMatrix in="SourceAlpha" type="matrix" values="0 0 0 0 0 0 0 0 0 0 0 0 0 0 0 0 0 0 127 0"
                result="hardAlpha" />
            <feOffset dy="4" />
            <feGaussianBlur stdDeviation="2" />
            <feComposite in2="hardAlpha" operator="out" />
            <feColorMatrix type="matrix" values="0 0 0 0 0 0 0 0 0 0 0 0 0 0 0 0 0 0 0.45 0" />
            <feBlend mode="normal" in2="BackgroundImageFix" result="effect1_dropShadow_1_195" />
            <feBlend mode="normal" in="SourceGraphic" in2="effect1_dropShadow_1_195" result="shape" />
        </filter>
    </defs>
</svg>